<svg fill="none" height="30" width="48" xmlns="http://www.w3.org/2000/svg"><path d="M24 0C13.528 0 4.472 6.112 0 15c4.472 8.887 13.528 15 24 15s19.528-6.112 24-15C43.528 6.113 34.472 0 24 0zm11.84 7.96c2.841 1.8 5.241 4.2 6.985 7.04-1.8 2.84-4.2 5.24-6.984 7.04C32.297 24.282 28.2 25.482 24 25.482s-8.287-1.2-11.84-3.44c-2.841-1.8-5.241-4.2-6.985-7.041 1.8-2.84 4.2-5.24 6.984-7.04l.544-.329a12.263 12.263 0 00-.712 4.088c0 6.6 5.4 12 12 12s12-5.4 12-12c0-1.416-.272-2.84-.713-4.088zM24 10.527c0 2.513-2.016 4.528-4.528 4.528s-4.528-2.015-4.528-4.528C14.944 8.016 16.959 6 19.472 6S24 8.016 24 10.528z" fill="#000"/></svg>